<svg viewBox="0 0 96 96" xmlns="http://www.w3.org/2000/svg" xmlns:xlink="http://www.w3.org/1999/xlink" id="Icons_QrCode1" overflow="hidden"><path d="M27 19 27 27 19 27 19 19 27 19ZM33 13 13 13 13 33 33 33 33 13Z" stroke="none" stroke-width="1" stroke-linecap="butt" stroke-linejoin="miter" stroke-miterlimit="4" fill="#0060FF" fill-opacity="1"/><path d="M27 69 27 77 19 77 19 69 27 69ZM33 63 13 63 13 83 33 83 33 63Z" stroke="none" stroke-width="1" stroke-linecap="butt" stroke-linejoin="miter" stroke-miterlimit="4" fill="#0060FF" fill-opacity="1"/><path d="M77 19 77 27 69 27 69 19 77 19ZM83 13 63 13 63 33 83 33 83 13Z" stroke="none" stroke-width="1" stroke-linecap="butt" stroke-linejoin="miter" stroke-miterlimit="4" fill="#0060FF" fill-opacity="1"/><path d="M45 45 25 45 25 39 39 39 39 13 57 13 57 19 45 19Z" stroke="none" stroke-width="1" stroke-linecap="butt" stroke-linejoin="miter" stroke-miterlimit="4" fill="#0060FF" fill-opacity="1"/><rect x="51" y="25" width="6" height="8" stroke="none" stroke-width="1" stroke-linecap="butt" stroke-linejoin="miter" stroke-miterlimit="4" fill="#0060FF" fill-opacity="1"/><path d="M50 69 39 69 39 51 51 51 51 39 69 39 69 51 83 51 83 57 63 57 63 45 57 45 57 57 45 57 45 63 50 63Z" stroke="none" stroke-width="1" stroke-linecap="butt" stroke-linejoin="miter" stroke-miterlimit="4" fill="#0060FF" fill-opacity="1"/><path d="M33 57 13 57 13 39 19 39 19 51 33 51Z" stroke="none" stroke-width="1" stroke-linecap="butt" stroke-linejoin="miter" stroke-miterlimit="4" fill="#0060FF" fill-opacity="1"/><path d="M63 83 39 83 39 77 57 77 57 63 63 63Z" stroke="none" stroke-width="1" stroke-linecap="butt" stroke-linejoin="miter" stroke-miterlimit="4" fill="#0060FF" fill-opacity="1"/><rect x="75" y="39" width="8" height="6" stroke="none" stroke-width="1" stroke-linecap="butt" stroke-linejoin="miter" stroke-miterlimit="4" fill="#0060FF" fill-opacity="1"/><path d="M83 83 69 83 69 63 83 63 83 69 75 69 75 77 83 77Z" stroke="none" stroke-width="1" stroke-linecap="butt" stroke-linejoin="miter" stroke-miterlimit="4" fill="#0060FF" fill-opacity="1"/></svg>