<?xml version="1.0" encoding="UTF-8" standalone="yes"?><svg class="icon" xmlns="http://www.w3.org/2000/svg" xmlns:xlink="http://www.w3.org/1999/xlink" version="1.2" baseProfile="tiny" x="0" y="0" width="200" height="200" viewBox="0 0 1024 1024"><defs/><path fill="#0052d9" fill-opacity="1" d="M 506.942 345.921 C 532.201 345.921 549.076 329.005 549.076 303.814 C 549.076 278.337 532.228 261.858 506.942 261.858 C 481.643 261.858 456.274 278.338 456.274 303.814 C 456.302 329.018 481.683 345.921 506.942 345.921 M 271.257 261.857 C 245.998 261.857 220.467 278.337 220.467 303.813 C 220.467 329.003 245.999 345.92 271.257 345.92 C 296.42 345.92 313.269 329.004 313.269 303.813 C 313.255 278.336 296.435 261.857 271.257 261.857 M 1010.65 615.492 C 1010.65 482.29 887.091 368.79 735.417 356.98 C 735.622 355.328 735.718 353.607 735.349 351.888 C 704.943 210.098 552.463 103.193 380.649 103.193 C 186.499 103.193 28.53 238.58 28.53 404.986 C 28.53 494.265 74.104 574.711 160.476 638.144 L 130.37 728.652 C 128.431 734.537 130.193 741.022 134.876 745.104 C 137.729 747.562 141.321 748.845 144.952 748.845 C 147.287 748.845 149.649 748.299 151.819 747.22 L 264.855 690.655 L 278.781 693.482 C 313.583 700.636 343.634 706.835 380.649 706.835 C 391.544 706.835 421.527 702.848 424.053 699.653 C 464.808 801.643 577.147 875.263 709.326 875.263 C 743.186 875.263 777.456 867.099 808.217 859.397 L 895.353 907.033 C 897.66 908.29 900.2 908.944 902.712 908.944 C 906.153 908.944 909.593 907.783 912.351 905.531 C 917.198 901.599 919.192 895.127 917.389 889.201 L 895.134 815.2 C 969.736 756.245 1010.65 685.712 1010.65 615.492 L 1010.65 615.492 M 409.798 665.75 C 400.172 666.583 390.41 666.993 380.716 666.993 C 348.03 666.993 320.382 661.341 288.406 654.733 L 269.824 650.978 C 266.629 650.295 263.257 650.733 260.321 652.247 L 178.634 693.139 L 199.865 629.364 C 201.941 623.124 199.66 616.311 194.295 612.543 C 112.225 555.336 70.636 485.649 70.636 405.45 C 70.636 261.271 209.723 143.934 380.703 143.934 C 531.845 143.934 665.662 235.889 693.282 358.195 C 534.807 360.271 406.576 471.682 406.576 608.515 C 406.576 628.408 409.594 647.686 414.686 666.282 C 413.144 665.9 411.518 665.599 409.799 665.75 L 409.798 665.75 M 860.371 788.699 C 855.496 792.372 853.436 798.706 855.183 804.551 L 868.987 850.454 L 812.34 819.461 C 810.183 818.273 807.752 817.658 805.336 817.658 C 804.148 817.658 802.947 817.808 801.772 818.122 C 771.393 825.796 739.95 833.715 709.339 833.715 C 567.153 833.715 451.482 735.998 451.482 615.904 C 451.482 495.809 567.14 398.133 709.339 398.133 C 848.808 398.133 966.664 497.857 966.664 615.904 C 966.664 675.774 928.926 737.159 860.373 788.701 L 860.371 788.699 M 616.454 506.006 C 599.606 506.006 582.758 522.977 582.758 539.798 C 582.758 556.742 599.606 573.467 616.454 573.467 C 641.767 573.467 658.492 556.742 658.492 539.798 C 658.492 522.95 641.767 506.006 616.454 506.006 M 801.58 506.006 C 784.977 506.006 768.129 522.977 768.129 539.798 C 768.129 556.742 784.977 573.467 801.58 573.467 C 826.811 573.467 843.837 556.742 843.837 539.798 C 843.837 522.95 826.839 506.006 801.58 506.006 M 801.58 506.006"/></svg>
